<!-- Generated by IcoMoon.io -->
<svg version="1.1" xmlns="http://www.w3.org/2000/svg" width="32" height="32" viewBox="0 0 32 32">
<title>Shape_1</title>
<path fill="#b8136a" d="M15.997 32h-0c0.001 0 0.001 0 0.002 0 8.837 0 16-7.164 16-16s-7.164-16-16-16c-4.332 0-8.261 1.721-11.138 4.513l0-0c-0.198 0.202-0.32 0.48-0.32 0.785 0 0.62 0.503 1.123 1.123 1.123 0.294 0 0.561-0.113 0.76-0.296l-0.004 0.003c2.479-2.402 5.858-3.88 9.582-3.88 7.606 0 13.772 6.166 13.772 13.772s-6.166 13.772-13.772 13.772c-7.606 0-13.772-6.166-13.772-13.772 0-2.754 0.809-5.32 2.169-7.418l-0.003 0.004c0.113-0.175 0.179-0.384 0.179-0.609 0-0.62-0.503-1.123-1.123-1.123-0.396 0-0.744 0.205-0.946 0.518l0.038-0.063c-1.613 2.498-2.549 5.474-2.549 8.669 0 8.837 7.164 16.002 16.002 16.002zM15.997 26.574h-0c0 0 0 0 0.001 0 5.839 0 10.573-4.734 10.573-10.573s-4.734-10.573-10.573-10.573c-2.809 0-5.363 1.096-7.251 2.878l-0.001 0.001c-0.217 0.205-0.352 0.494-0.352 0.816 0 0.62 0.502 1.122 1.122 1.122 0.298 0 0.569-0.116 0.77-0.306l-0.004 0.004c1.491-1.406 3.501-2.269 5.712-2.269 4.598 0 8.325 3.727 8.325 8.325s-3.727 8.325-8.325 8.325c-4.598 0-8.325-3.727-8.325-8.325v0.001c-0-0.009-0-0.017-0-0.026 0-1.361 0.33-2.646 0.894-3.731l-0.003 0.006c0.079-0.154 0.124-0.328 0.124-0.513 0-0.62-0.503-1.122-1.122-1.122-0.435 0-0.812 0.247-1.001 0.615l0.028-0.059c-0.744 1.448-1.165 3.089-1.165 4.829 0 5.84 4.734 10.574 10.574 10.574 0 0 0 0 0.001 0zM15.997 21.617v0c0 0 0 0 0 0 3.101 0 5.615-2.514 5.615-5.615s-2.514-5.615-5.615-5.615c-1.507 0-2.876 0.594-3.882 1.558l-0 0c-0.213 0.204-0.346 0.492-0.346 0.811 0 0.62 0.503 1.123 1.123 1.123 0.301 0 0.575-0.119 0.776-0.312l-0.001 0.001c0.605-0.58 1.427-0.936 2.331-0.936 1.861 0 3.37 1.509 3.37 3.37s-1.509 3.37-3.37 3.37c-1.861 0-3.37-1.509-3.37-3.37 0-0.001 0-0.002 0-0.003v-0c0-0.237 0.024-0.469 0.066-0.67l-0.001 0.007c0.015-0.072 0.022-0.148 0.022-0.224 0-0.62-0.502-1.122-1.122-1.122-0.543 0-0.996 0.386-1.101 0.905l0.006-0.036c-0.076 0.369-0.116 0.75-0.116 1.141 0 3.101 2.513 5.615 5.615 5.617zM15.997 17.125c-0.31-0-0.591-0.126-0.794-0.33l-13.592-13.593c-0.208-0.204-0.337-0.488-0.337-0.802 0-0.62 0.503-1.123 1.123-1.123 0.314 0 0.598 0.129 0.802 0.337l13.592 13.593c0.203 0.203 0.328 0.484 0.328 0.794 0 0.62-0.502 1.123-1.122 1.124h-0zM1.211 5.895c0.038 0 0.075 0 0.112-0.003l3.28-0.33c0.524-0.053 0.942-0.468 1-0.997l0.328-3.064-0 0.005c0.005-0.043 0.007-0.086 0.007-0.13 0-0.62-0.503-1.123-1.123-1.123-0.58 0-1.057 0.439-1.117 1.008l-0.231 2.157-2.372 0.237c-0.566 0.058-1.007 0.536-1.007 1.117 0 0.62 0.502 1.122 1.122 1.123z"></path>
</svg>
