<!-- Generated by IcoMoon.io -->
<svg version="1.1" xmlns="http://www.w3.org/2000/svg" width="23" height="32" viewBox="0 0 23 32">
<title>Shape_3</title>
<path fill="#df9411" d="M14.723 26.838h-6.774c-1.779-0.008-3.217-1.451-3.217-3.231 0-0.002 0-0.003 0-0.005v0-0.377c-0.037-1.586-0.679-3.015-1.704-4.072l0.001 0.002c-1.885-2.032-3.041-4.762-3.041-7.763 0-0.715 0.066-1.415 0.191-2.094l-0.011 0.070c0.777-4.521 5.284-8.778 9.844-9.299 0.379-0.045 0.818-0.070 1.262-0.070 6.299 0 11.406 5.107 11.406 11.406 0 2.995-1.155 5.721-3.043 7.756l0.007-0.007c-1.023 1.055-1.666 2.484-1.703 4.063l-0 0.007v0.377c0 0.001 0 0.003 0 0.005 0 1.78-1.439 3.224-3.218 3.231h-0.001zM11.351 1.803c-0.402 0.001-0.796 0.024-1.184 0.068l0.049-0.004c-3.766 0.431-7.633 4.080-8.275 7.81-0.097 0.514-0.153 1.106-0.153 1.71 0 2.526 0.973 4.826 2.565 6.543l-0.006-0.006c1.324 1.376 2.15 3.239 2.185 5.295l0 0.007v0.377c0 0.001 0 0.001 0 0.002 0 0.784 0.634 1.42 1.417 1.424h6.774c0.783-0.004 1.417-0.64 1.417-1.424 0-0.001 0-0.001 0-0.002v0-0.377c0.035-2.063 0.862-3.926 2.188-5.305l-0.002 0.003c1.583-1.709 2.555-4.006 2.555-6.529 0-2.836-1.228-5.386-3.18-7.147l-0.009-0.008c-1.662-1.512-3.88-2.437-6.314-2.437-0.010 0-0.019 0-0.029 0h0.002zM15.167 32.003h-7.66c-1.19 0-2.155-0.965-2.155-2.155s0.965-2.155 2.155-2.155h7.659c1.19 0 2.155 0.965 2.155 2.155s-0.965 2.155-2.155 2.155v0zM7.507 29.503c-0.191 0-0.346 0.155-0.346 0.346s0.155 0.346 0.346 0.346h7.658c0.191 0 0.346-0.155 0.346-0.346s-0.155-0.346-0.346-0.346h-7.659z"></path>
</svg>
