<!-- Generated by IcoMoon.io -->
<svg version="1.1" xmlns="http://www.w3.org/2000/svg" width="29" height="32" viewBox="0 0 29 32">
<title>Shape_2</title>
<path fill="#13b8a0" d="M13.497 32c-7.441 0-13.494-6.114-13.494-13.628 0-7.521 6.053-13.64 13.494-13.64 0.487 0.001 0.881 0.396 0.881 0.883 0 0.002 0 0.004-0 0.007v-0 25.489c0 0.002 0 0.004 0 0.006 0 0.487-0.394 0.882-0.881 0.883h-0zM12.615 6.546c-6.101 0.54-10.848 5.626-10.848 11.82s4.748 11.28 10.803 11.817l0.045 0.003v-23.64zM16.582 14.533c-0.181-0-0.349-0.056-0.488-0.15l0.003 0.002c-0.241-0.162-0.397-0.434-0.397-0.742 0-0.001 0-0.002 0-0.002v0-12.748c0-0.002-0-0.003-0-0.005 0-0.488 0.394-0.884 0.881-0.887h0c5.549 0.010 10.311 3.368 12.374 8.162l0.034 0.088c0.045 0.104 0.072 0.225 0.072 0.351 0 0.119-0.023 0.232-0.065 0.336l0.002-0.006c-0.088 0.22-0.255 0.393-0.464 0.487l-0.006 0.002-11.598 5.041c-0.103 0.045-0.222 0.072-0.348 0.073h-0zM17.463 1.814v10.476l9.529-4.142c-1.851-3.548-5.37-6.004-9.488-6.332l-0.041-0.003zM13.497 32c-0.487-0.001-0.881-0.396-0.881-0.883 0-0.002 0-0.004 0-0.007v0-12.738c0-0 0-0.001 0-0.001 0-0.363 0.216-0.676 0.527-0.817l0.006-0.002 11.598-5.038c0.102-0.045 0.222-0.072 0.348-0.072 0.362 0 0.674 0.22 0.808 0.533l0.002 0.006c0.692 1.581 1.095 3.423 1.095 5.359 0 7.489-6.026 13.57-13.494 13.66l-0.008 0zM14.378 18.956v11.23c6.107-0.548 10.858-5.641 10.858-11.845 0-1.37-0.232-2.686-0.658-3.911l0.025 0.083z"></path>
</svg>
