<svg aria-hidden="true" style="position: absolute; width: 0; height: 0; overflow: hidden;" version="1.1" xmlns="http://www.w3.org/2000/svg" xmlns:xlink="http://www.w3.org/1999/xlink">
<defs>
<symbol id="icon-Shape_1" viewBox="0 0 32 32">
<path fill="#b8136a" style="fill: var(--color1, #b8136a)" d="M15.997 32h-0c0.001 0 0.001 0 0.002 0 8.837 0 16-7.164 16-16s-7.164-16-16-16c-4.332 0-8.261 1.721-11.138 4.513l0-0c-0.198 0.202-0.32 0.48-0.32 0.785 0 0.62 0.503 1.123 1.123 1.123 0.294 0 0.561-0.113 0.76-0.296l-0.004 0.003c2.479-2.402 5.858-3.88 9.582-3.88 7.606 0 13.772 6.166 13.772 13.772s-6.166 13.772-13.772 13.772c-7.606 0-13.772-6.166-13.772-13.772 0-2.754 0.809-5.32 2.169-7.418l-0.003 0.004c0.113-0.175 0.179-0.384 0.179-0.609 0-0.62-0.503-1.123-1.123-1.123-0.396 0-0.744 0.205-0.946 0.518l0.038-0.063c-1.613 2.498-2.549 5.474-2.549 8.669 0 8.837 7.164 16.002 16.002 16.002zM15.997 26.574h-0c0 0 0 0 0.001 0 5.839 0 10.573-4.734 10.573-10.573s-4.734-10.573-10.573-10.573c-2.809 0-5.363 1.096-7.251 2.878l-0.001 0.001c-0.217 0.205-0.352 0.494-0.352 0.816 0 0.62 0.502 1.122 1.122 1.122 0.298 0 0.569-0.116 0.77-0.306l-0.004 0.004c1.491-1.406 3.501-2.269 5.712-2.269 4.598 0 8.325 3.727 8.325 8.325s-3.727 8.325-8.325 8.325c-4.598 0-8.325-3.727-8.325-8.325v0.001c-0-0.009-0-0.017-0-0.026 0-1.361 0.33-2.646 0.894-3.731l-0.003 0.006c0.079-0.154 0.124-0.328 0.124-0.513 0-0.62-0.503-1.122-1.122-1.122-0.435 0-0.812 0.247-1.001 0.615l0.028-0.059c-0.744 1.448-1.165 3.089-1.165 4.829 0 5.84 4.734 10.574 10.574 10.574 0 0 0 0 0.001 0zM15.997 21.617v0c0 0 0 0 0 0 3.101 0 5.615-2.514 5.615-5.615s-2.514-5.615-5.615-5.615c-1.507 0-2.876 0.594-3.882 1.558l-0 0c-0.213 0.204-0.346 0.492-0.346 0.811 0 0.62 0.503 1.123 1.123 1.123 0.301 0 0.575-0.119 0.776-0.312l-0.001 0.001c0.605-0.58 1.427-0.936 2.331-0.936 1.861 0 3.37 1.509 3.37 3.37s-1.509 3.37-3.37 3.37c-1.861 0-3.37-1.509-3.37-3.37 0-0.001 0-0.002 0-0.003v-0c0-0.237 0.024-0.469 0.066-0.67l-0.001 0.007c0.015-0.072 0.022-0.148 0.022-0.224 0-0.62-0.502-1.122-1.122-1.122-0.543 0-0.996 0.386-1.101 0.905l0.006-0.036c-0.076 0.369-0.116 0.75-0.116 1.141 0 3.101 2.513 5.615 5.615 5.617zM15.997 17.125c-0.31-0-0.591-0.126-0.794-0.33l-13.592-13.593c-0.208-0.204-0.337-0.488-0.337-0.802 0-0.62 0.503-1.123 1.123-1.123 0.314 0 0.598 0.129 0.802 0.337l13.592 13.593c0.203 0.203 0.328 0.484 0.328 0.794 0 0.62-0.502 1.123-1.122 1.124h-0zM1.211 5.895c0.038 0 0.075 0 0.112-0.003l3.28-0.33c0.524-0.053 0.942-0.468 1-0.997l0.328-3.064-0 0.005c0.005-0.043 0.007-0.086 0.007-0.13 0-0.62-0.503-1.123-1.123-1.123-0.58 0-1.057 0.439-1.117 1.008l-0.231 2.157-2.372 0.237c-0.566 0.058-1.007 0.536-1.007 1.117 0 0.62 0.502 1.122 1.122 1.123z"></path>
</symbol>
<symbol id="icon-Shape_2" viewBox="0 0 29 32">
<path fill="#13b8a0" style="fill: var(--color2, #13b8a0)" d="M13.497 32c-7.441 0-13.494-6.114-13.494-13.628 0-7.521 6.053-13.64 13.494-13.64 0.487 0.001 0.881 0.396 0.881 0.883 0 0.002 0 0.004-0 0.007v-0 25.489c0 0.002 0 0.004 0 0.006 0 0.487-0.394 0.882-0.881 0.883h-0zM12.615 6.546c-6.101 0.54-10.848 5.626-10.848 11.82s4.748 11.28 10.803 11.817l0.045 0.003v-23.64zM16.582 14.533c-0.181-0-0.349-0.056-0.488-0.15l0.003 0.002c-0.241-0.162-0.397-0.434-0.397-0.742 0-0.001 0-0.002 0-0.002v0-12.748c0-0.002-0-0.003-0-0.005 0-0.488 0.394-0.884 0.881-0.887h0c5.549 0.010 10.311 3.368 12.374 8.162l0.034 0.088c0.045 0.104 0.072 0.225 0.072 0.351 0 0.119-0.023 0.232-0.065 0.336l0.002-0.006c-0.088 0.22-0.255 0.393-0.464 0.487l-0.006 0.002-11.598 5.041c-0.103 0.045-0.222 0.072-0.348 0.073h-0zM17.463 1.814v10.476l9.529-4.142c-1.851-3.548-5.37-6.004-9.488-6.332l-0.041-0.003zM13.497 32c-0.487-0.001-0.881-0.396-0.881-0.883 0-0.002 0-0.004 0-0.007v0-12.738c0-0 0-0.001 0-0.001 0-0.363 0.216-0.676 0.527-0.817l0.006-0.002 11.598-5.038c0.102-0.045 0.222-0.072 0.348-0.072 0.362 0 0.674 0.22 0.808 0.533l0.002 0.006c0.692 1.581 1.095 3.423 1.095 5.359 0 7.489-6.026 13.57-13.494 13.66l-0.008 0zM14.378 18.956v11.23c6.107-0.548 10.858-5.641 10.858-11.845 0-1.37-0.232-2.686-0.658-3.911l0.025 0.083z"></path>
</symbol>
<symbol id="icon-Shape_3" viewBox="0 0 23 32">
<path fill="#df9411" style="fill: var(--color3, #df9411)" d="M14.723 26.838h-6.774c-1.779-0.008-3.217-1.451-3.217-3.231 0-0.002 0-0.003 0-0.005v0-0.377c-0.037-1.586-0.679-3.015-1.704-4.072l0.001 0.002c-1.885-2.032-3.041-4.762-3.041-7.763 0-0.715 0.066-1.415 0.191-2.094l-0.011 0.070c0.777-4.521 5.284-8.778 9.844-9.299 0.379-0.045 0.818-0.070 1.262-0.070 6.299 0 11.406 5.107 11.406 11.406 0 2.995-1.155 5.721-3.043 7.756l0.007-0.007c-1.023 1.055-1.666 2.484-1.703 4.063l-0 0.007v0.377c0 0.001 0 0.003 0 0.005 0 1.78-1.439 3.224-3.218 3.231h-0.001zM11.351 1.803c-0.402 0.001-0.796 0.024-1.184 0.068l0.049-0.004c-3.766 0.431-7.633 4.080-8.275 7.81-0.097 0.514-0.153 1.106-0.153 1.71 0 2.526 0.973 4.826 2.565 6.543l-0.006-0.006c1.324 1.376 2.15 3.239 2.185 5.295l0 0.007v0.377c0 0.001 0 0.001 0 0.002 0 0.784 0.634 1.42 1.417 1.424h6.774c0.783-0.004 1.417-0.64 1.417-1.424 0-0.001 0-0.001 0-0.002v0-0.377c0.035-2.063 0.862-3.926 2.188-5.305l-0.002 0.003c1.583-1.709 2.555-4.006 2.555-6.529 0-2.836-1.228-5.386-3.18-7.147l-0.009-0.008c-1.662-1.512-3.88-2.437-6.314-2.437-0.010 0-0.019 0-0.029 0h0.002zM15.167 32.003h-7.66c-1.19 0-2.155-0.965-2.155-2.155s0.965-2.155 2.155-2.155h7.659c1.19 0 2.155 0.965 2.155 2.155s-0.965 2.155-2.155 2.155v0zM7.507 29.503c-0.191 0-0.346 0.155-0.346 0.346s0.155 0.346 0.346 0.346h7.658c0.191 0 0.346-0.155 0.346-0.346s-0.155-0.346-0.346-0.346h-7.659z"></path>
</symbol>
<symbol id="icon-facebook" viewBox="0 0 32 32">
<path d="M19 6h5v-6h-5c-3.86 0-7 3.14-7 7v3h-4v6h4v16h6v-16h5l1-6h-6v-3c0-0.542 0.458-1 1-1z"></path>
</symbol>
<symbol id="icon-instagram" viewBox="0 0 32 32">
<path d="M16 2.881c4.275 0 4.781 0.019 6.462 0.094 1.563 0.069 2.406 0.331 2.969 0.55 0.744 0.288 1.281 0.638 1.837 1.194 0.563 0.563 0.906 1.094 1.2 1.838 0.219 0.563 0.481 1.412 0.55 2.969 0.075 1.688 0.094 2.194 0.094 6.463s-0.019 4.781-0.094 6.463c-0.069 1.563-0.331 2.406-0.55 2.969-0.288 0.744-0.637 1.281-1.194 1.837-0.563 0.563-1.094 0.906-1.837 1.2-0.563 0.219-1.413 0.481-2.969 0.55-1.688 0.075-2.194 0.094-6.463 0.094s-4.781-0.019-6.463-0.094c-1.563-0.069-2.406-0.331-2.969-0.55-0.744-0.288-1.281-0.637-1.838-1.194-0.563-0.563-0.906-1.094-1.2-1.837-0.219-0.563-0.481-1.413-0.55-2.969-0.075-1.688-0.094-2.194-0.094-6.463s0.019-4.781 0.094-6.463c0.069-1.563 0.331-2.406 0.55-2.969 0.288-0.744 0.638-1.281 1.194-1.838 0.563-0.563 1.094-0.906 1.838-1.2 0.563-0.219 1.412-0.481 2.969-0.55 1.681-0.075 2.188-0.094 6.463-0.094zM16 0c-4.344 0-4.887 0.019-6.594 0.094-1.7 0.075-2.869 0.35-3.881 0.744-1.056 0.412-1.95 0.956-2.837 1.85-0.894 0.888-1.438 1.781-1.85 2.831-0.394 1.019-0.669 2.181-0.744 3.881-0.075 1.713-0.094 2.256-0.094 6.6s0.019 4.887 0.094 6.594c0.075 1.7 0.35 2.869 0.744 3.881 0.413 1.056 0.956 1.95 1.85 2.837 0.887 0.887 1.781 1.438 2.831 1.844 1.019 0.394 2.181 0.669 3.881 0.744 1.706 0.075 2.25 0.094 6.594 0.094s4.888-0.019 6.594-0.094c1.7-0.075 2.869-0.35 3.881-0.744 1.050-0.406 1.944-0.956 2.831-1.844s1.438-1.781 1.844-2.831c0.394-1.019 0.669-2.181 0.744-3.881 0.075-1.706 0.094-2.25 0.094-6.594s-0.019-4.887-0.094-6.594c-0.075-1.7-0.35-2.869-0.744-3.881-0.394-1.063-0.938-1.956-1.831-2.844-0.887-0.887-1.781-1.438-2.831-1.844-1.019-0.394-2.181-0.669-3.881-0.744-1.712-0.081-2.256-0.1-6.6-0.1v0z"></path>
<path d="M16 7.781c-4.537 0-8.219 3.681-8.219 8.219s3.681 8.219 8.219 8.219 8.219-3.681 8.219-8.219c0-4.537-3.681-8.219-8.219-8.219zM16 21.331c-2.944 0-5.331-2.387-5.331-5.331s2.387-5.331 5.331-5.331c2.944 0 5.331 2.387 5.331 5.331s-2.387 5.331-5.331 5.331z"></path>
<path d="M26.462 7.456c0 1.060-0.859 1.919-1.919 1.919s-1.919-0.859-1.919-1.919c0-1.060 0.859-1.919 1.919-1.919s1.919 0.859 1.919 1.919z"></path>
</symbol>
<symbol id="icon-whatsapp" viewBox="0 0 32 32">
<path d="M27.281 4.65c-2.994-3-6.975-4.65-11.219-4.65-8.738 0-15.85 7.112-15.85 15.856 0 2.794 0.731 5.525 2.119 7.925l-2.25 8.219 8.406-2.206c2.319 1.262 4.925 1.931 7.575 1.931h0.006c0 0 0 0 0 0 8.738 0 15.856-7.113 15.856-15.856 0-4.238-1.65-8.219-4.644-11.219zM16.069 29.050v0c-2.369 0-4.688-0.637-6.713-1.837l-0.481-0.288-4.987 1.306 1.331-4.863-0.313-0.5c-1.325-2.094-2.019-4.519-2.019-7.012 0-7.269 5.912-13.181 13.188-13.181 3.519 0 6.831 1.375 9.319 3.862 2.488 2.494 3.856 5.8 3.856 9.325-0.006 7.275-5.919 13.188-13.181 13.188zM23.294 19.175c-0.394-0.2-2.344-1.156-2.706-1.288s-0.625-0.2-0.894 0.2c-0.262 0.394-1.025 1.288-1.256 1.556-0.231 0.262-0.462 0.3-0.856 0.1s-1.675-0.619-3.188-1.969c-1.175-1.050-1.975-2.35-2.206-2.744s-0.025-0.613 0.175-0.806c0.181-0.175 0.394-0.463 0.594-0.694s0.262-0.394 0.394-0.662c0.131-0.262 0.069-0.494-0.031-0.694s-0.894-2.15-1.219-2.944c-0.319-0.775-0.65-0.669-0.894-0.681-0.231-0.012-0.494-0.012-0.756-0.012s-0.694 0.1-1.056 0.494c-0.363 0.394-1.387 1.356-1.387 3.306s1.419 3.831 1.619 4.1c0.2 0.262 2.794 4.269 6.769 5.981 0.944 0.406 1.681 0.65 2.256 0.837 0.95 0.3 1.813 0.256 2.494 0.156 0.762-0.113 2.344-0.956 2.675-1.881s0.331-1.719 0.231-1.881c-0.094-0.175-0.356-0.275-0.756-0.475z"></path>
</symbol>
<symbol id="icon-twitter" viewBox="0 0 32 32">
<path d="M32 7.075c-1.175 0.525-2.444 0.875-3.769 1.031 1.356-0.813 2.394-2.1 2.887-3.631-1.269 0.75-2.675 1.3-4.169 1.594-1.2-1.275-2.906-2.069-4.794-2.069-3.625 0-6.563 2.938-6.563 6.563 0 0.512 0.056 1.012 0.169 1.494-5.456-0.275-10.294-2.888-13.531-6.862-0.563 0.969-0.887 2.1-0.887 3.3 0 2.275 1.156 4.287 2.919 5.463-1.075-0.031-2.087-0.331-2.975-0.819 0 0.025 0 0.056 0 0.081 0 3.181 2.263 5.838 5.269 6.437-0.55 0.15-1.131 0.231-1.731 0.231-0.425 0-0.831-0.044-1.237-0.119 0.838 2.606 3.263 4.506 6.131 4.563-2.25 1.762-5.075 2.813-8.156 2.813-0.531 0-1.050-0.031-1.569-0.094 2.913 1.869 6.362 2.95 10.069 2.95 12.075 0 18.681-10.006 18.681-18.681 0-0.287-0.006-0.569-0.019-0.85 1.281-0.919 2.394-2.075 3.275-3.394z"></path>
</symbol>
</defs>
</svg>
